{"title":"CHRISTMAS IN WONDERLAND  IN H.264 BY WINKER","uid":5200715,"size":943156093,"categoryP":"video","categoryS":"movies","magnet":"?xt=urn:btih:21ec9d466a839eb1a44931aa7f8a273f9d096931&amp;dn=CHRISTMAS+IN+WONDERLAND++IN+H.264+BY+WINKER&amp;tr=udp%3A%2F%2Ftracker.openbittorrent.com%3A80&amp;tr=udp%3A%2F%2Fopen.demonii.com%3A1337&amp;tr=udp%3A%2F%2Ftracker.coppersurfer.tk%3A6969&amp;tr=udp%3A%2F%2Fexodus.desync.com%3A6969","seeders":0,"leechers":1,"uploader":"alanwatson","files":-1,"time":1260147020,"description":"Two kids, a million in cash... What could possibly go wrong?\n\nThere's something magical residing in the West Edmonton shopping mall in this fantastic family Christmas comedy starring Patrick Swayze (Dirty Dancing, Ghost), Tim Curry (Ben 10: Alien Force, Home Alone 2) and Carmen Electra (Scary Movie, Starsky &amp; Hutch).\n\nHaving just moved to Edmonton from Los Angeles on Christmas Eve, the Saunders family have no friends, no money and, with the exception of the bright-eyed Mary, no Christmas spirit.\n\nBut things start looking a bit more like Christmas when 12-year old Brian and 6-year old Mary find a satchel of money at the local mall and they launch a Yuletide shopping spree... That is, until the crooks who counterfeited the money chase them through the mall packed with holiday shoppers.\n\nPacked with seasonal cheer, great villains and laugh-out-loud adventures, Christmas in Wonderland is a fun Christmas treat for all the family.\n\nFormat                           : MPEG-4\nFormat profile                   : Base Media / Version 2\nCodec ID                         : mp42\nFile size                        : 899 MiB\nDuration                         : 1h 34mn\nOverall bit rate                 : 1 327 Kbps\nEncoded date                     : UTC 2009-12-06 10:52:57\nTagged date                      : UTC 2009-12-06 15:04:39\nWriting application              : HandBrake 0.9.3 2008112300\n\nVideo\nID                               : 1\nFormat                           : AVC\nFormat/Info                      : Advanced Video Codec\nFormat profile                   : &lt;a class=&quot;__cf_email__&quot; href=&quot;/cdn-cgi/l/email-protection&quot; data-cfemail=&quot;135e727a7d535f273d23&quot;&gt;[email&amp;#160;protected]&lt;/a&gt;&lt;script cf-hash='f9e31' type=&quot;text/javascript&quot;&gt;\n/* &lt;![CDATA[ */!function(){try{var t=&quot;currentScript&quot;in document?document.currentScript:function(){for(var t=document.getElementsByTagName(&quot;script&quot;),e=t.length;e--;)if(t[e].getAttribute(&quot;cf-hash&quot;))return t[e]}();if(t&amp;&amp;t.previousSibling){var e,r,n,i,c=t.previousSibling,a=c.getAttribute(&quot;data-cfemail&quot;);if(a){for(e=&quot;&quot;,r=parseInt(a.substr(0,2),16),n=2;a.length-n;n+=2)i=parseInt(a.substr(n,2),16)^r,e+=String.fromCharCode(i);e=document.createTextNode(e),c.parentNode.replaceChild(e,c)}}}catch(u){}}();/* ]]&gt; */&lt;/script&gt;\nFormat settings, CABAC           : Yes\nFormat settings, ReFrames        : 3 frames\nCodec ID                         : avc1\nCodec ID/Info                    : Advanced Video Coding\nDuration                         : 1h 34mn\nBit rate mode                    : Variable\nBit rate                         : 1 164 Kbps\nWidth                            : 720 pixels\nHeight                           : 438 pixels\nDisplay aspect ratio             : 2.35:1\nFrame rate mode                  : Variable\nFrame rate                       : 25.000 fps\nMinimum frame rate               : 12.500 fps\nMaximum frame rate               : 25.000 fps\nResolution                       : 24 bits\nColorimetry                      : 4:2:0\nScan type                        : Progressive\nBits/(Pixel*Frame)               : 0.148\nStream size                      : 789 MiB (88%)\nWriting library                  : x264 core 65\n\n\nAudio\nID                               : 2\nFormat                           : AAC\nFormat/Info                      : Advanced Audio Codec\nFormat version                   : Version 4\nFormat profile                   : LC\nFormat settings, SBR             : No\nCodec ID                         : 40\nDuration                         : 1h 34mn\nBit rate mode                    : Variable\nBit rate                         : 160 Kbps\nMaximum bit rate                 : 253 Kbps\nChannel(s)                       : 2 channels\nChannel positions                : L R\nSampling rate                    : 48.0 KHz\nResolution                       : 16 bits\nStream size                      : 108 MiB (12%)\nLanguage                         : English\nEncoded date                     : UTC 2009-12-06 10:52:57\nTagged date                      : UTC 2009-12-06 15:04:37\n\n","torrent":{"xt":"urn:btih:21ec9d466a839eb1a44931aa7f8a273f9d096931","amp;dn":"CHRISTMAS+IN+WONDERLAND++IN+H.264+BY+WINKER","amp;tr":["udp%3A%2F%2Ftracker.openbittorrent.com%3A80","udp%3A%2F%2Fopen.demonii.com%3A1337","udp%3A%2F%2Ftracker.coppersurfer.tk%3A6969","udp%3A%2F%2Fexodus.desync.com%3A6969"],"infoHash":"21ec9d466a839eb1a44931aa7f8a273f9d096931","infoHashBuffer":{"type":"Buffer","data":[33,236,157,70,106,131,158,177,164,73,49,170,127,138,39,63,157,9,105,49]},"announce":[],"urlList":[]}}